<svg version="1.1" xmlns="http://www.w3.org/2000/svg" height="100" width="100"><g><path d="M 0 86.60254037844386 L 100 86.60254037844386 L 50.0 0.0 Z" fill="white" /><text x="50.0" y="5" font-size="2" text-anchor="middle" dominant-baseline="middle" fill="black">17</text><text x="50.0" y="57.735026918962575" font-size="20" text-anchor="middle" dominant-baseline="middle" fill="black">18</text><path d="M 0.0 86.60254037844386 L 20.0 86.60254037844386 L 10.0 69.28203230275508 Z" fill="#e6194b" stroke="black" stroke-width="1" /><text x="10.0" y="81.94228634059948" font-size="11" text-anchor="middle" dominant-baseline="middle" fill="black">A</text><path d="M 20.0 86.60254037844386 L 40.0 86.60254037844386 L 30.0 69.28203230275508 Z" fill="#3cb44b" stroke="black" stroke-width="1" /><text x="30.0" y="81.94228634059948" font-size="11" text-anchor="middle" dominant-baseline="middle" fill="black">B</text><path d="M 40.0 86.60254037844386 L 60.0 86.60254037844386 L 50.0 69.28203230275508 Z" fill="#ffe119" stroke="black" stroke-width="1" /><text x="50.0" y="81.94228634059948" font-size="11" text-anchor="middle" dominant-baseline="middle" fill="black">C</text><path d="M 60.0 86.60254037844386 L 80.0 86.60254037844386 L 70.0 69.28203230275508 Z" fill="#4363d8" stroke="black" stroke-width="1" /><text x="70.0" y="81.94228634059948" font-size="11" text-anchor="middle" dominant-baseline="middle" fill="black">D</text><path d="M 80.0 86.60254037844386 L 100.0 86.60254037844386 L 90.0 69.28203230275508 Z" fill="#f58231" stroke="black" stroke-width="1" /><text x="90.0" y="81.94228634059948" font-size="11" text-anchor="middle" dominant-baseline="middle" fill="black">E</text><path d="M 80.0 86.60254037844386 L 100.0 86.60254037844386 L 90.0 69.28203230275508 Z" fill="#f58231" stroke="black" stroke-width="1" /><text x="90.0" y="81.94228634059948" font-size="11" text-anchor="middle" dominant-baseline="middle" fill="black">E</text><path d="M 70.0 69.28203230275508 L 90.0 69.28203230275508 L 80.0 51.96152422706631 Z" fill="#911eb4" stroke="black" stroke-width="1" /><text x="80.0" y="64.6217782649107" font-size="11" text-anchor="middle" dominant-baseline="middle" fill="black">F</text><path d="M 60.0 51.96152422706632 L 80.0 51.96152422706632 L 70.0 34.64101615137755 Z" fill="#46f0f0" stroke="black" stroke-width="1" /><text x="70.0" y="47.30127018922194" font-size="11" text-anchor="middle" dominant-baseline="middle" fill="black">G</text><path d="M 50.0 34.64101615137755 L 70.0 34.64101615137755 L 60.0 17.320508075688778 Z" fill="#f032e6" stroke="black" stroke-width="1" /><text x="60.0" y="29.980762113533164" font-size="11" text-anchor="middle" dominant-baseline="middle" fill="black">H</text><path d="M 40.0 17.320508075688778 L 60.0 17.320508075688778 L 50.0 7.105427357601002e-15 Z" fill="#bcf60c" stroke="black" stroke-width="1" /><text x="50.0" y="12.660254037844393" font-size="11" text-anchor="middle" dominant-baseline="middle" fill="black">I</text><path d="M 40.0 17.32050807568877 L 60.0 17.32050807568877 L 50.0 0.0 Z" fill="#bcf60c" stroke="black" stroke-width="1" /><text x="50.0" y="12.660254037844386" font-size="11" text-anchor="middle" dominant-baseline="middle" fill="black">I</text><path d="M 30.0 34.64101615137754 L 50.0 34.64101615137754 L 40.0 17.32050807568877 Z" fill="#fabebe" stroke="black" stroke-width="1" /><text x="40.0" y="29.980762113533157" font-size="11" text-anchor="middle" dominant-baseline="middle" fill="black">J</text><path d="M 20.0 51.96152422706631 L 40.0 51.96152422706631 L 30.0 34.64101615137754 Z" fill="#008080" stroke="black" stroke-width="1" /><text x="30.0" y="47.301270189221924" font-size="11" text-anchor="middle" dominant-baseline="middle" fill="black">K</text><path d="M 10.0 69.28203230275508 L 30.0 69.28203230275508 L 20.0 51.96152422706631 Z" fill="#e6beff" stroke="black" stroke-width="1" /><text x="20.0" y="64.6217782649107" font-size="11" text-anchor="middle" dominant-baseline="middle" fill="black">L</text><path d="M 0.0 86.60254037844385 L 20.0 86.60254037844385 L 10.0 69.28203230275508 Z" fill="#e6194b" stroke="black" stroke-width="1" /><text x="10.0" y="81.94228634059947" font-size="11" text-anchor="middle" dominant-baseline="middle" fill="black">A</text></g></svg>