<svg version="1.1" xmlns="http://www.w3.org/2000/svg" height="11in" width="8.5in" viewBox="-10 -10 270.0 366.41016151377545" font-family="Science Gothic"><g transform="translate(150.0, 0.0)"><path d="M 0 86.60254037844386 L 100 86.60254037844386 L 50.0 0.0 Z" stroke="black" fill="white" /><path d="M 15.0 76.60254037844386 L 85.0 76.60254037844386" stroke="black" /><path d="M 28.333333333333336 61.60254037844386 L 48.333333333333336 61.60254037844386" stroke="black" /><path d="M 51.66666666666667 61.60254037844386 L 71.66666666666667 61.60254037844386" stroke="black" /><path d="M 40.0 46.60254037844386 L 60.0 46.60254037844386" stroke="black" /><text x="50.0" y="83.60254037844386" font-size="4" text-anchor="middle">2025 MSL Holiday Party</text><text x="50.0" y="83.60254037844386" font-size="3" text-anchor="middle" transform="rotate(120, 50.0, 57.735026918962575)">Write down your name and your 3 matches</text><text x="50.0" y="83.60254037844386" font-size="3" text-anchor="middle" transform="rotate(240, 50.0, 57.735026918962575)">Designed by arteymix @ Pavlidis Lab</text></g><g transform="translate(150.0, 86.60254037844386) rotate(180, 50.0, 43.30127018922193)"><path d="M 0 86.60254037844386 L 100 86.60254037844386 L 50.0 0.0 Z" stroke="black" fill="white" /><path d="M 15.0 76.60254037844386 L 85.0 76.60254037844386" stroke="black" /><path d="M 28.333333333333336 61.60254037844386 L 48.333333333333336 61.60254037844386" stroke="black" /><path d="M 51.66666666666667 61.60254037844386 L 71.66666666666667 61.60254037844386" stroke="black" /><path d="M 40.0 46.60254037844386 L 60.0 46.60254037844386" stroke="black" /><text x="50.0" y="83.60254037844386" font-size="4" text-anchor="middle">2025 MSL Holiday Party</text><text x="50.0" y="83.60254037844386" font-size="3" text-anchor="middle" transform="rotate(120, 50.0, 57.735026918962575)">Write down your name and your 3 matches</text><text x="50.0" y="83.60254037844386" font-size="3" text-anchor="middle" transform="rotate(240, 50.0, 57.735026918962575)">Designed by arteymix @ Pavlidis Lab</text></g><g transform="translate(150.0, 173.20508075688772)"><path d="M 0 86.60254037844386 L 100 86.60254037844386 L 50.0 0.0 Z" stroke="black" fill="white" /><path d="M 15.0 76.60254037844386 L 85.0 76.60254037844386" stroke="black" /><path d="M 28.333333333333336 61.60254037844386 L 48.333333333333336 61.60254037844386" stroke="black" /><path d="M 51.66666666666667 61.60254037844386 L 71.66666666666667 61.60254037844386" stroke="black" /><path d="M 40.0 46.60254037844386 L 60.0 46.60254037844386" stroke="black" /><text x="50.0" y="83.60254037844386" font-size="4" text-anchor="middle">2025 MSL Holiday Party</text><text x="50.0" y="83.60254037844386" font-size="3" text-anchor="middle" transform="rotate(120, 50.0, 57.735026918962575)">Write down your name and your 3 matches</text><text x="50.0" y="83.60254037844386" font-size="3" text-anchor="middle" transform="rotate(240, 50.0, 57.735026918962575)">Designed by arteymix @ Pavlidis Lab</text></g><g transform="translate(150.0, 259.8076211353316) rotate(180, 50.0, 43.30127018922193)"><path d="M 0 86.60254037844386 L 100 86.60254037844386 L 50.0 0.0 Z" stroke="black" fill="white" /><path d="M 15.0 76.60254037844386 L 85.0 76.60254037844386" stroke="black" /><path d="M 28.333333333333336 61.60254037844386 L 48.333333333333336 61.60254037844386" stroke="black" /><path d="M 51.66666666666667 61.60254037844386 L 71.66666666666667 61.60254037844386" stroke="black" /><path d="M 40.0 46.60254037844386 L 60.0 46.60254037844386" stroke="black" /><text x="50.0" y="83.60254037844386" font-size="4" text-anchor="middle">2025 MSL Holiday Party</text><text x="50.0" y="83.60254037844386" font-size="3" text-anchor="middle" transform="rotate(120, 50.0, 57.735026918962575)">Write down your name and your 3 matches</text><text x="50.0" y="83.60254037844386" font-size="3" text-anchor="middle" transform="rotate(240, 50.0, 57.735026918962575)">Designed by arteymix @ Pavlidis Lab</text></g><g transform="translate(100.0, 0.0) rotate(180, 50.0, 43.30127018922193)"><path d="M 0 86.60254037844386 L 100 86.60254037844386 L 50.0 0.0 Z" stroke="black" fill="white" /><path d="M 15.0 76.60254037844386 L 85.0 76.60254037844386" stroke="black" /><path d="M 28.333333333333336 61.60254037844386 L 48.333333333333336 61.60254037844386" stroke="black" /><path d="M 51.66666666666667 61.60254037844386 L 71.66666666666667 61.60254037844386" stroke="black" /><path d="M 40.0 46.60254037844386 L 60.0 46.60254037844386" stroke="black" /><text x="50.0" y="83.60254037844386" font-size="4" text-anchor="middle">2025 MSL Holiday Party</text><text x="50.0" y="83.60254037844386" font-size="3" text-anchor="middle" transform="rotate(120, 50.0, 57.735026918962575)">Write down your name and your 3 matches</text><text x="50.0" y="83.60254037844386" font-size="3" text-anchor="middle" transform="rotate(240, 50.0, 57.735026918962575)">Designed by arteymix @ Pavlidis Lab</text></g><g transform="translate(100.0, 86.60254037844386)"><path d="M 0 86.60254037844386 L 100 86.60254037844386 L 50.0 0.0 Z" stroke="black" fill="white" /><path d="M 15.0 76.60254037844386 L 85.0 76.60254037844386" stroke="black" /><path d="M 28.333333333333336 61.60254037844386 L 48.333333333333336 61.60254037844386" stroke="black" /><path d="M 51.66666666666667 61.60254037844386 L 71.66666666666667 61.60254037844386" stroke="black" /><path d="M 40.0 46.60254037844386 L 60.0 46.60254037844386" stroke="black" /><text x="50.0" y="83.60254037844386" font-size="4" text-anchor="middle">2025 MSL Holiday Party</text><text x="50.0" y="83.60254037844386" font-size="3" text-anchor="middle" transform="rotate(120, 50.0, 57.735026918962575)">Write down your name and your 3 matches</text><text x="50.0" y="83.60254037844386" font-size="3" text-anchor="middle" transform="rotate(240, 50.0, 57.735026918962575)">Designed by arteymix @ Pavlidis Lab</text></g><g transform="translate(100.0, 173.20508075688772) rotate(180, 50.0, 43.30127018922193)"><path d="M 0 86.60254037844386 L 100 86.60254037844386 L 50.0 0.0 Z" stroke="black" fill="white" /><path d="M 15.0 76.60254037844386 L 85.0 76.60254037844386" stroke="black" /><path d="M 28.333333333333336 61.60254037844386 L 48.333333333333336 61.60254037844386" stroke="black" /><path d="M 51.66666666666667 61.60254037844386 L 71.66666666666667 61.60254037844386" stroke="black" /><path d="M 40.0 46.60254037844386 L 60.0 46.60254037844386" stroke="black" /><text x="50.0" y="83.60254037844386" font-size="4" text-anchor="middle">2025 MSL Holiday Party</text><text x="50.0" y="83.60254037844386" font-size="3" text-anchor="middle" transform="rotate(120, 50.0, 57.735026918962575)">Write down your name and your 3 matches</text><text x="50.0" y="83.60254037844386" font-size="3" text-anchor="middle" transform="rotate(240, 50.0, 57.735026918962575)">Designed by arteymix @ Pavlidis Lab</text></g><g transform="translate(100.0, 259.8076211353316)"><path d="M 0 86.60254037844386 L 100 86.60254037844386 L 50.0 0.0 Z" stroke="black" fill="white" /><path d="M 15.0 76.60254037844386 L 85.0 76.60254037844386" stroke="black" /><path d="M 28.333333333333336 61.60254037844386 L 48.333333333333336 61.60254037844386" stroke="black" /><path d="M 51.66666666666667 61.60254037844386 L 71.66666666666667 61.60254037844386" stroke="black" /><path d="M 40.0 46.60254037844386 L 60.0 46.60254037844386" stroke="black" /><text x="50.0" y="83.60254037844386" font-size="4" text-anchor="middle">2025 MSL Holiday Party</text><text x="50.0" y="83.60254037844386" font-size="3" text-anchor="middle" transform="rotate(120, 50.0, 57.735026918962575)">Write down your name and your 3 matches</text><text x="50.0" y="83.60254037844386" font-size="3" text-anchor="middle" transform="rotate(240, 50.0, 57.735026918962575)">Designed by arteymix @ Pavlidis Lab</text></g><g transform="translate(50.0, 0.0)"><path d="M 0 86.60254037844386 L 100 86.60254037844386 L 50.0 0.0 Z" stroke="black" fill="white" /><path d="M 15.0 76.60254037844386 L 85.0 76.60254037844386" stroke="black" /><path d="M 28.333333333333336 61.60254037844386 L 48.333333333333336 61.60254037844386" stroke="black" /><path d="M 51.66666666666667 61.60254037844386 L 71.66666666666667 61.60254037844386" stroke="black" /><path d="M 40.0 46.60254037844386 L 60.0 46.60254037844386" stroke="black" /><text x="50.0" y="83.60254037844386" font-size="4" text-anchor="middle">2025 MSL Holiday Party</text><text x="50.0" y="83.60254037844386" font-size="3" text-anchor="middle" transform="rotate(120, 50.0, 57.735026918962575)">Write down your name and your 3 matches</text><text x="50.0" y="83.60254037844386" font-size="3" text-anchor="middle" transform="rotate(240, 50.0, 57.735026918962575)">Designed by arteymix @ Pavlidis Lab</text></g><g transform="translate(50.0, 86.60254037844386) rotate(180, 50.0, 43.30127018922193)"><path d="M 0 86.60254037844386 L 100 86.60254037844386 L 50.0 0.0 Z" stroke="black" fill="white" /><path d="M 15.0 76.60254037844386 L 85.0 76.60254037844386" stroke="black" /><path d="M 28.333333333333336 61.60254037844386 L 48.333333333333336 61.60254037844386" stroke="black" /><path d="M 51.66666666666667 61.60254037844386 L 71.66666666666667 61.60254037844386" stroke="black" /><path d="M 40.0 46.60254037844386 L 60.0 46.60254037844386" stroke="black" /><text x="50.0" y="83.60254037844386" font-size="4" text-anchor="middle">2025 MSL Holiday Party</text><text x="50.0" y="83.60254037844386" font-size="3" text-anchor="middle" transform="rotate(120, 50.0, 57.735026918962575)">Write down your name and your 3 matches</text><text x="50.0" y="83.60254037844386" font-size="3" text-anchor="middle" transform="rotate(240, 50.0, 57.735026918962575)">Designed by arteymix @ Pavlidis Lab</text></g><g transform="translate(50.0, 173.20508075688772)"><path d="M 0 86.60254037844386 L 100 86.60254037844386 L 50.0 0.0 Z" stroke="black" fill="white" /><path d="M 15.0 76.60254037844386 L 85.0 76.60254037844386" stroke="black" /><path d="M 28.333333333333336 61.60254037844386 L 48.333333333333336 61.60254037844386" stroke="black" /><path d="M 51.66666666666667 61.60254037844386 L 71.66666666666667 61.60254037844386" stroke="black" /><path d="M 40.0 46.60254037844386 L 60.0 46.60254037844386" stroke="black" /><text x="50.0" y="83.60254037844386" font-size="4" text-anchor="middle">2025 MSL Holiday Party</text><text x="50.0" y="83.60254037844386" font-size="3" text-anchor="middle" transform="rotate(120, 50.0, 57.735026918962575)">Write down your name and your 3 matches</text><text x="50.0" y="83.60254037844386" font-size="3" text-anchor="middle" transform="rotate(240, 50.0, 57.735026918962575)">Designed by arteymix @ Pavlidis Lab</text></g><g transform="translate(50.0, 259.8076211353316) rotate(180, 50.0, 43.30127018922193)"><path d="M 0 86.60254037844386 L 100 86.60254037844386 L 50.0 0.0 Z" stroke="black" fill="white" /><path d="M 15.0 76.60254037844386 L 85.0 76.60254037844386" stroke="black" /><path d="M 28.333333333333336 61.60254037844386 L 48.333333333333336 61.60254037844386" stroke="black" /><path d="M 51.66666666666667 61.60254037844386 L 71.66666666666667 61.60254037844386" stroke="black" /><path d="M 40.0 46.60254037844386 L 60.0 46.60254037844386" stroke="black" /><text x="50.0" y="83.60254037844386" font-size="4" text-anchor="middle">2025 MSL Holiday Party</text><text x="50.0" y="83.60254037844386" font-size="3" text-anchor="middle" transform="rotate(120, 50.0, 57.735026918962575)">Write down your name and your 3 matches</text><text x="50.0" y="83.60254037844386" font-size="3" text-anchor="middle" transform="rotate(240, 50.0, 57.735026918962575)">Designed by arteymix @ Pavlidis Lab</text></g><g transform="translate(0.0, 0.0) rotate(180, 50.0, 43.30127018922193)"><path d="M 0 86.60254037844386 L 100 86.60254037844386 L 50.0 0.0 Z" stroke="black" fill="white" /><path d="M 15.0 76.60254037844386 L 85.0 76.60254037844386" stroke="black" /><path d="M 28.333333333333336 61.60254037844386 L 48.333333333333336 61.60254037844386" stroke="black" /><path d="M 51.66666666666667 61.60254037844386 L 71.66666666666667 61.60254037844386" stroke="black" /><path d="M 40.0 46.60254037844386 L 60.0 46.60254037844386" stroke="black" /><text x="50.0" y="83.60254037844386" font-size="4" text-anchor="middle">2025 MSL Holiday Party</text><text x="50.0" y="83.60254037844386" font-size="3" text-anchor="middle" transform="rotate(120, 50.0, 57.735026918962575)">Write down your name and your 3 matches</text><text x="50.0" y="83.60254037844386" font-size="3" text-anchor="middle" transform="rotate(240, 50.0, 57.735026918962575)">Designed by arteymix @ Pavlidis Lab</text></g><g transform="translate(0.0, 86.60254037844386)"><path d="M 0 86.60254037844386 L 100 86.60254037844386 L 50.0 0.0 Z" stroke="black" fill="white" /><path d="M 15.0 76.60254037844386 L 85.0 76.60254037844386" stroke="black" /><path d="M 28.333333333333336 61.60254037844386 L 48.333333333333336 61.60254037844386" stroke="black" /><path d="M 51.66666666666667 61.60254037844386 L 71.66666666666667 61.60254037844386" stroke="black" /><path d="M 40.0 46.60254037844386 L 60.0 46.60254037844386" stroke="black" /><text x="50.0" y="83.60254037844386" font-size="4" text-anchor="middle">2025 MSL Holiday Party</text><text x="50.0" y="83.60254037844386" font-size="3" text-anchor="middle" transform="rotate(120, 50.0, 57.735026918962575)">Write down your name and your 3 matches</text><text x="50.0" y="83.60254037844386" font-size="3" text-anchor="middle" transform="rotate(240, 50.0, 57.735026918962575)">Designed by arteymix @ Pavlidis Lab</text></g><g transform="translate(0.0, 173.20508075688772) rotate(180, 50.0, 43.30127018922193)"><path d="M 0 86.60254037844386 L 100 86.60254037844386 L 50.0 0.0 Z" stroke="black" fill="white" /><path d="M 15.0 76.60254037844386 L 85.0 76.60254037844386" stroke="black" /><path d="M 28.333333333333336 61.60254037844386 L 48.333333333333336 61.60254037844386" stroke="black" /><path d="M 51.66666666666667 61.60254037844386 L 71.66666666666667 61.60254037844386" stroke="black" /><path d="M 40.0 46.60254037844386 L 60.0 46.60254037844386" stroke="black" /><text x="50.0" y="83.60254037844386" font-size="4" text-anchor="middle">2025 MSL Holiday Party</text><text x="50.0" y="83.60254037844386" font-size="3" text-anchor="middle" transform="rotate(120, 50.0, 57.735026918962575)">Write down your name and your 3 matches</text><text x="50.0" y="83.60254037844386" font-size="3" text-anchor="middle" transform="rotate(240, 50.0, 57.735026918962575)">Designed by arteymix @ Pavlidis Lab</text></g><g transform="translate(0.0, 259.8076211353316)"><path d="M 0 86.60254037844386 L 100 86.60254037844386 L 50.0 0.0 Z" stroke="black" fill="white" /><path d="M 15.0 76.60254037844386 L 85.0 76.60254037844386" stroke="black" /><path d="M 28.333333333333336 61.60254037844386 L 48.333333333333336 61.60254037844386" stroke="black" /><path d="M 51.66666666666667 61.60254037844386 L 71.66666666666667 61.60254037844386" stroke="black" /><path d="M 40.0 46.60254037844386 L 60.0 46.60254037844386" stroke="black" /><text x="50.0" y="83.60254037844386" font-size="4" text-anchor="middle">2025 MSL Holiday Party</text><text x="50.0" y="83.60254037844386" font-size="3" text-anchor="middle" transform="rotate(120, 50.0, 57.735026918962575)">Write down your name and your 3 matches</text><text x="50.0" y="83.60254037844386" font-size="3" text-anchor="middle" transform="rotate(240, 50.0, 57.735026918962575)">Designed by arteymix @ Pavlidis Lab</text></g></svg>